<svg width="19" height="22" viewBox="0 0 19 22" fill="none" xmlns="http://www.w3.org/2000/svg">
<g clip-path="url(#clip0)">
<path d="M18.7347 11.8079L16.5838 9.64394C16.4625 9.51521 16.3048 9.42708 16.1321 9.39147V0.901639C16.1321 0.66251 16.0377 0.433176 15.8696 0.264086C15.7015 0.0949959 15.4735 0 15.2358 0H0.896226C0.658532 0 0.430554 0.0949959 0.262479 0.264086C0.0944038 0.433176 0 0.66251 0 0.901639V21.0984C0 21.3375 0.0944038 21.5668 0.262479 21.7359C0.430554 21.905 0.658532 22 0.896226 22H15.2358C15.4735 22 15.7015 21.905 15.8696 21.7359C16.0377 21.5668 16.1321 21.3375 16.1321 21.0984V15.703L18.7347 13.0774C18.8188 12.9947 18.8857 12.896 18.9313 12.787C18.9769 12.678 19.0004 12.5609 19.0004 12.4426C19.0004 12.3243 18.9769 12.2073 18.9313 12.0982C18.8857 11.9892 18.8188 11.8905 18.7347 11.8079ZM14.7268 14.8157L14.6049 14.6931L11.909 17.398L10.7332 17.6938L11.0272 16.5108L15.9528 11.5554L16.8347 12.4426L14.6049 14.6931L14.7268 14.8157ZM14.3396 10.6249L9.58603 15.4144C9.46674 15.5265 9.3842 15.6724 9.34942 15.8328L8.63244 18.718C8.59609 18.8684 8.59883 19.0256 8.64036 19.1746C8.68188 19.3235 8.76083 19.4593 8.86958 19.5687C8.97833 19.6781 9.1132 19.7575 9.26128 19.7993C9.40936 19.841 9.56565 19.8438 9.71509 19.8072L12.583 19.0859C12.7411 19.0473 12.8852 18.9649 12.9989 18.8479L14.3396 17.5062V20.1967H1.79245V1.80328H14.3396V10.6249Z" fill="#92929D"/>
<path d="M5.19798 5.40972H10.9338C11.1715 5.40972 11.3995 5.31473 11.5676 5.14564C11.7357 4.97655 11.8301 4.74721 11.8301 4.50808C11.8301 4.26896 11.7357 4.03962 11.5676 3.87053C11.3995 3.70144 11.1715 3.60645 10.9338 3.60645H5.19798C4.96029 3.60645 4.73231 3.70144 4.56424 3.87053C4.39616 4.03962 4.30176 4.26896 4.30176 4.50808C4.30176 4.74721 4.39616 4.97655 4.56424 5.14564C4.73231 5.31473 4.96029 5.40972 5.19798 5.40972Z" fill="#92929D"/>
<path d="M5.19798 9.73785H10.9338C11.1715 9.73785 11.3995 9.64285 11.5676 9.47376C11.7357 9.30467 11.8301 9.07534 11.8301 8.83621C11.8301 8.59708 11.7357 8.36775 11.5676 8.19866C11.3995 8.02957 11.1715 7.93457 10.9338 7.93457H5.19798C4.96029 7.93457 4.73231 8.02957 4.56424 8.19866C4.39616 8.36775 4.30176 8.59708 4.30176 8.83621C4.30176 9.07534 4.39616 9.30467 4.56424 9.47376C4.73231 9.64285 4.96029 9.73785 5.19798 9.73785Z" fill="#92929D"/>
<path d="M5.19798 14.0655H8.06591C8.3036 14.0655 8.53158 13.9705 8.69966 13.8014C8.86773 13.6323 8.96213 13.403 8.96213 13.1638C8.96213 12.9247 8.86773 12.6954 8.69966 12.5263C8.53158 12.3572 8.3036 12.2622 8.06591 12.2622H5.19798C4.96029 12.2622 4.73231 12.3572 4.56424 12.5263C4.39616 12.6954 4.30176 12.9247 4.30176 13.1638C4.30176 13.403 4.39616 13.6323 4.56424 13.8014C4.73231 13.9705 4.96029 14.0655 5.19798 14.0655Z" fill="#92929D"/>
<path d="M5.19798 18.3936H6.63195C6.86964 18.3936 7.09762 18.2986 7.26569 18.1295C7.43377 17.9604 7.52817 17.7311 7.52817 17.492C7.52817 17.2528 7.43377 17.0235 7.26569 16.8544C7.09762 16.6853 6.86964 16.5903 6.63195 16.5903H5.19798C4.96029 16.5903 4.73231 16.6853 4.56424 16.8544C4.39616 17.0235 4.30176 17.2528 4.30176 17.492C4.30176 17.7311 4.39616 17.9604 4.56424 18.1295C4.73231 18.2986 4.96029 18.3936 5.19798 18.3936Z" fill="#92929D"/>
</g>
<defs>
<clipPath id="clip0">
<rect width="19" height="22" fill="white"/>
</clipPath>
</defs>
</svg>
