<svg width="20" height="20" viewBox="0 0 20 20" fill="none" xmlns="http://www.w3.org/2000/svg">
<path fill-rule="evenodd" clip-rule="evenodd" d="M14.5455 2.1821V1.2444C14.5455 0.72649 14.9525 0.306641 15.4545 0.306641C15.9566 0.306641 16.3636 0.72649 16.3636 1.2444V2.1821H17.2727C18.779 2.1821 20 3.44167 20 4.99541V7.80873V9.68427V14.3731C20 17.4806 17.5579 19.9998 14.5455 19.9998H5.45455C2.44208 19.9998 0 17.4806 0 14.3731V9.68427V7.80873V4.99541C0 3.44167 1.22104 2.1821 2.72727 2.1821H4.54545V1.2444C4.54545 0.72649 4.95247 0.306641 5.45455 0.306641C5.95662 0.306641 6.36364 0.72649 6.36364 1.2444V2.1821H14.5455ZM2.72745 4.05754H4.54545V4.05768C4.54545 4.57559 4.95247 4.99544 5.45455 4.99544C5.95662 4.99544 6.36364 4.57559 6.36364 4.05768V4.05754H14.5455V4.05768C14.5455 4.57559 14.9525 4.99544 15.4545 4.99544C15.9566 4.99544 16.3636 4.57559 16.3636 4.05768V4.05754H17.2729C17.775 4.05754 18.182 4.47739 18.182 4.9953V7.80856H1.81836V4.9953C1.81836 4.47739 2.22537 4.05754 2.72745 4.05754ZM1.81836 9.68431V14.3731C1.81836 16.4448 3.44641 18.1242 5.45472 18.1242H14.5456C16.5539 18.1242 18.182 16.4448 18.182 14.3731V9.68431H1.81836Z" fill="#9898A2"/>
</svg>
