<svg width="22" height="15" viewBox="0 0 22 15" fill="none" xmlns="http://www.w3.org/2000/svg">
<g clip-path="url(#clip0)">
<path d="M21.5295 2.10109C21.3791 1.95131 21.2004 1.83274 21.0037 1.75221C20.8071 1.67168 20.5963 1.6308 20.3838 1.63191C20.173 1.63118 19.9643 1.67281 19.77 1.75431L15.9783 3.31143V3.13463C15.9765 2.30383 15.6447 1.50757 15.0555 0.920098C14.4664 0.332629 13.6678 0.00179634 12.8345 0H3.14382C2.31058 0.00179634 1.51199 0.332629 0.922793 0.920098C0.3336 1.50757 0.00180161 2.30383 0 3.13463V11.8654C0.00180161 12.6962 0.3336 13.4924 0.922793 14.0799C1.51199 14.6674 2.31058 14.9982 3.14382 15H12.8345C13.6678 14.9982 14.4664 14.6674 15.0555 14.0799C15.6447 13.4924 15.9765 12.6962 15.9783 11.8654V11.6954L19.77 13.2457C20.0153 13.3461 20.2817 13.3848 20.5456 13.3583C20.8095 13.3318 21.0628 13.241 21.2832 13.0939C21.5035 12.9467 21.6842 12.7478 21.8092 12.5145C21.9342 12.2813 21.9997 12.021 22 11.7566V3.24342C22.0008 2.8156 21.8316 2.40488 21.5295 2.10109ZM19.7905 4.14098V10.8522L15.9783 9.2883V5.6777L19.7905 4.14098ZM12.8345 12.8105H3.15065C3.02796 12.8105 2.90645 12.7864 2.7931 12.7396C2.67975 12.6928 2.57676 12.6242 2.49 12.5377C2.40324 12.4512 2.33445 12.3485 2.2875 12.2355C2.24055 12.1224 2.21637 12.0013 2.21637 11.879V3.12783C2.21637 2.88077 2.31479 2.64383 2.49 2.46913C2.66521 2.29443 2.90286 2.19628 3.15065 2.19628H12.8345C13.0823 2.19628 13.3199 2.29443 13.4951 2.46913C13.6703 2.64383 13.7688 2.88077 13.7688 3.12783V11.8654C13.7688 11.9877 13.7446 12.1088 13.6976 12.2219C13.6507 12.3349 13.5818 12.4376 13.4951 12.5241C13.4083 12.6106 13.3053 12.6792 13.192 12.726C13.0786 12.7728 12.9572 12.7969 12.8345 12.7969V12.8105Z" fill="#9898A2"/>
</g>
<defs>
<clipPath id="clip0">
<rect width="22" height="15" fill="white"/>
</clipPath>
</defs>
</svg>
